####
#
# OBJ File Generated by Meshlab
#
####
# Object realsense.obj
#
# Vertices: 84
# Faces: 164
#
####
vn -0.028099 0.715179 0.698376
v -0.031000 0.028000 0.014000
vn -0.028099 0.715179 -0.698376
v -0.031000 0.028000 -0.014000
vn -0.113249 0.715024 -0.689866
v -0.033190 0.027828 -0.014000
vn -0.113249 0.715024 0.689866
v -0.033190 0.027828 0.014000
vn -0.223709 0.688505 -0.689866
v -0.035326 0.027315 -0.014000
vn -0.223709 0.688505 0.689866
v -0.035326 0.027315 0.014000
vn -0.328660 0.645032 -0.689866
v -0.037356 0.026474 -0.014000
vn -0.328660 0.645032 0.689866
v -0.037356 0.026474 0.014000
vn -0.425519 0.585677 -0.689866
v -0.039229 0.025326 -0.014000
vn -0.425519 0.585677 0.689866
v -0.039229 0.025326 0.014000
vn -0.511901 0.511901 -0.689866
v -0.040899 0.023899 -0.014000
vn -0.511901 0.511901 0.689866
v -0.040899 0.023899 0.014000
vn -0.585677 0.425519 -0.689866
v -0.042326 0.022229 -0.014000
vn -0.585677 0.425519 0.689866
v -0.042326 0.022229 0.014000
vn -0.645032 0.328660 -0.689866
v -0.043474 0.020356 -0.014000
vn -0.645032 0.328660 0.689866
v -0.043474 0.020356 0.014000
vn -0.688505 0.223709 -0.689866
v -0.044315 0.018326 -0.014000
vn -0.688505 0.223709 0.689866
v -0.044315 0.018326 0.014000
vn -0.715024 0.113249 -0.689866
v -0.044828 0.016190 -0.014000
vn -0.715024 0.113249 0.689866
v -0.044828 0.016190 0.014000
vn -0.723937 0.000000 -0.689866
v -0.045000 0.014000 -0.014000
vn -0.723937 -0.000000 0.689866
v -0.045000 0.014000 0.014000
vn -0.715024 -0.113249 -0.689866
v -0.044828 0.011810 -0.014000
vn -0.715024 -0.113249 0.689866
v -0.044828 0.011810 0.014000
vn -0.688505 -0.223709 -0.689866
v -0.044315 0.009674 -0.014000
vn -0.688505 -0.223709 0.689866
v -0.044315 0.009674 0.014000
vn -0.645032 -0.328660 -0.689866
v -0.043474 0.007644 -0.014000
vn -0.645032 -0.328660 0.689866
v -0.043474 0.007644 0.014000
vn -0.585677 -0.425519 -0.689866
v -0.042326 0.005771 -0.014000
vn -0.585677 -0.425519 0.689866
v -0.042326 0.005771 0.014000
vn -0.511901 -0.511901 -0.689866
v -0.040899 0.004101 -0.014000
vn -0.511901 -0.511901 0.689866
v -0.040899 0.004101 0.014000
vn -0.425519 -0.585677 -0.689866
v -0.039229 0.002674 -0.014000
vn -0.425519 -0.585677 0.689867
v -0.039229 0.002674 0.014000
vn -0.328660 -0.645032 -0.689866
v -0.037356 0.001526 -0.014000
vn -0.328660 -0.645032 0.689866
v -0.037356 0.001526 0.014000
vn -0.223709 -0.688505 -0.689866
v -0.035326 0.000685 -0.014000
vn -0.223709 -0.688505 0.689866
v -0.035326 0.000685 0.014000
vn -0.113249 -0.715024 -0.689866
v -0.033190 0.000172 -0.014000
vn -0.113249 -0.715024 0.689866
v -0.033190 0.000172 0.014000
vn -0.028100 -0.715180 -0.698375
v -0.031000 0.000000 -0.014000
vn -0.028100 -0.715180 0.698375
v -0.031000 0.000000 0.014000
vn 0.028099 -0.715180 0.698376
v 0.031000 0.000000 0.014000
vn 0.028099 -0.715180 -0.698376
v 0.031000 0.000000 -0.014000
vn 0.113249 -0.715024 -0.689867
v 0.033190 0.000172 -0.014000
vn 0.113249 -0.715024 0.689867
v 0.033190 0.000172 0.014000
vn 0.223709 -0.688505 -0.689866
v 0.035326 0.000685 -0.014000
vn 0.223709 -0.688505 0.689866
v 0.035326 0.000685 0.014000
vn 0.328660 -0.645032 -0.689867
v 0.037356 0.001526 -0.014000
vn 0.328660 -0.645032 0.689867
v 0.037356 0.001526 0.014000
vn 0.425519 -0.585677 -0.689866
v 0.039229 0.002674 -0.014000
vn 0.425519 -0.585677 0.689866
v 0.039229 0.002674 0.014000
vn 0.511901 -0.511901 -0.689866
v 0.040900 0.004101 -0.014000
vn 0.511901 -0.511901 0.689866
v 0.040900 0.004101 0.014000
vn 0.585678 -0.425519 -0.689866
v 0.042326 0.005771 -0.014000
vn 0.585678 -0.425519 0.689866
v 0.042326 0.005771 0.014000
vn 0.645033 -0.328660 -0.689866
v 0.043474 0.007644 -0.014000
vn 0.645033 -0.328660 0.689866
v 0.043474 0.007644 0.014000
vn 0.688504 -0.223709 -0.689867
v 0.044315 0.009674 -0.014000
vn 0.688504 -0.223709 0.689867
v 0.044315 0.009674 0.014000
vn 0.715024 -0.113249 -0.689866
v 0.044828 0.011810 -0.014000
vn 0.715024 -0.113249 0.689866
v 0.044828 0.011810 0.014000
vn 0.723937 -0.000000 -0.689866
v 0.045000 0.014000 -0.014000
vn 0.723937 0.000000 0.689866
v 0.045000 0.014000 0.014000
vn 0.715024 0.113249 -0.689866
v 0.044828 0.016190 -0.014000
vn 0.715024 0.113249 0.689866
v 0.044828 0.016190 0.014000
vn 0.688505 0.223709 -0.689867
v 0.044315 0.018326 -0.014000
vn 0.688505 0.223709 0.689867
v 0.044315 0.018326 0.014000
vn 0.645033 0.328660 -0.689866
v 0.043474 0.020356 -0.014000
vn 0.645033 0.328660 0.689866
v 0.043474 0.020356 0.014000
vn 0.585678 0.425519 -0.689866
v 0.042326 0.022229 -0.014000
vn 0.585678 0.425519 0.689866
v 0.042326 0.022229 0.014000
vn 0.511901 0.511901 -0.689866
v 0.040900 0.023899 -0.014000
vn 0.511901 0.511901 0.689866
v 0.040900 0.023899 0.014000
vn 0.425519 0.585677 -0.689866
v 0.039229 0.025326 -0.014000
vn 0.425519 0.585677 0.689866
v 0.039229 0.025326 0.014000
vn 0.328660 0.645032 -0.689867
v 0.037356 0.026474 -0.014000
vn 0.328660 0.645032 0.689866
v 0.037356 0.026474 0.014000
vn 0.223709 0.688505 -0.689866
v 0.035326 0.027315 -0.014000
vn 0.223709 0.688505 0.689866
v 0.035326 0.027315 0.014000
vn 0.113249 0.715024 -0.689866
v 0.033190 0.027828 -0.014000
vn 0.113249 0.715024 0.689866
v 0.033190 0.027828 0.014000
vn 0.028099 0.715179 -0.698376
v 0.031000 0.028000 -0.014000
vn 0.028099 0.715179 0.698376
v 0.031000 0.028000 0.014000
# 84 vertices, 0 vertices normals

f 1//1 2//2 3//3
f 1//1 3//3 4//4
f 4//4 3//3 5//5
f 4//4 5//5 6//6
f 6//6 5//5 7//7
f 6//6 7//7 8//8
f 8//8 7//7 9//9
f 8//8 9//9 10//10
f 10//10 9//9 11//11
f 10//10 11//11 12//12
f 12//12 11//11 13//13
f 12//12 13//13 14//14
f 14//14 13//13 15//15
f 14//14 15//15 16//16
f 16//16 15//15 17//17
f 16//16 17//17 18//18
f 18//18 17//17 19//19
f 18//18 19//19 20//20
f 20//20 19//19 21//21
f 20//20 21//21 22//22
f 22//22 21//21 23//23
f 22//22 23//23 24//24
f 24//24 23//23 25//25
f 24//24 25//25 26//26
f 26//26 25//25 27//27
f 26//26 27//27 28//28
f 28//28 27//27 29//29
f 28//28 29//29 30//30
f 30//30 29//29 31//31
f 30//30 31//31 32//32
f 32//32 31//31 33//33
f 32//32 33//33 34//34
f 34//34 33//33 35//35
f 34//34 35//35 36//36
f 36//36 35//35 37//37
f 36//36 37//37 38//38
f 38//38 37//37 39//39
f 38//38 39//39 40//40
f 40//40 39//39 41//41
f 40//40 41//41 42//42
f 43//43 42//42 44//44
f 44//44 42//42 41//41
f 43//43 44//44 45//45
f 43//43 45//45 46//46
f 46//46 45//45 47//47
f 46//46 47//47 48//48
f 48//48 47//47 49//49
f 48//48 49//49 50//50
f 50//50 49//49 51//51
f 50//50 51//51 52//52
f 52//52 51//51 53//53
f 52//52 53//53 54//54
f 54//54 53//53 55//55
f 54//54 55//55 56//56
f 56//56 55//55 57//57
f 56//56 57//57 58//58
f 58//58 57//57 59//59
f 58//58 59//59 60//60
f 60//60 59//59 61//61
f 60//60 61//61 62//62
f 62//62 61//61 63//63
f 62//62 63//63 64//64
f 64//64 63//63 65//65
f 64//64 65//65 66//66
f 66//66 65//65 67//67
f 66//66 67//67 68//68
f 68//68 67//67 69//69
f 68//68 69//69 70//70
f 70//70 69//69 71//71
f 70//70 71//71 72//72
f 72//72 71//71 73//73
f 72//72 73//73 74//74
f 74//74 73//73 75//75
f 74//74 75//75 76//76
f 76//76 75//75 77//77
f 76//76 77//77 78//78
f 78//78 77//77 79//79
f 78//78 79//79 80//80
f 80//80 79//79 81//81
f 80//80 81//81 82//82
f 82//82 81//81 83//83
f 82//82 83//83 84//84
f 1//1 84//84 2//2
f 2//2 84//84 83//83
f 1//1 42//42 84//84
f 84//84 42//42 43//43
f 56//56 58//58 43//43
f 70//70 72//72 43//43
f 1//1 4//4 42//42
f 42//42 4//4 6//6
f 42//42 6//6 8//8
f 20//20 22//22 42//42
f 42//42 22//22 24//24
f 42//42 24//24 40//40
f 40//40 24//24 38//38
f 8//8 10//10 42//42
f 42//42 10//10 12//12
f 42//42 12//12 14//14
f 26//26 28//28 34//34
f 34//34 28//28 30//30
f 34//34 30//30 32//32
f 64//64 66//66 43//43
f 43//43 66//66 68//68
f 43//43 68//68 70//70
f 14//14 16//16 42//42
f 42//42 16//16 18//18
f 42//42 18//18 20//20
f 26//26 34//34 24//24
f 24//24 34//34 36//36
f 24//24 36//36 38//38
f 48//48 50//50 46//46
f 46//46 50//50 52//52
f 46//46 52//52 43//43
f 43//43 52//52 54//54
f 43//43 54//54 56//56
f 58//58 60//60 43//43
f 43//43 60//60 62//62
f 43//43 62//62 64//64
f 72//72 74//74 43//43
f 43//43 74//74 76//76
f 43//43 76//76 78//78
f 78//78 80//80 43//43
f 43//43 80//80 82//82
f 43//43 82//82 84//84
f 69//69 67//67 44//44
f 11//11 9//9 41//41
f 41//41 9//9 7//7
f 41//41 2//2 44//44
f 44//44 2//2 83//83
f 44//44 83//83 81//81
f 75//75 73//73 44//44
f 44//44 73//73 71//71
f 44//44 71//71 69//69
f 67//67 65//65 44//44
f 44//44 65//65 63//63
f 44//44 63//63 61//61
f 7//7 5//5 41//41
f 41//41 5//5 3//3
f 41//41 3//3 2//2
f 61//61 59//59 44//44
f 44//44 59//59 57//57
f 44//44 57//57 55//55
f 55//55 53//53 44//44
f 44//44 53//53 51//51
f 44//44 51//51 45//45
f 45//45 51//51 49//49
f 45//45 49//49 47//47
f 41//41 39//39 23//23
f 23//23 39//39 37//37
f 23//23 21//21 41//41
f 41//41 21//21 19//19
f 41//41 19//19 17//17
f 81//81 79//79 44//44
f 44//44 79//79 77//77
f 44//44 77//77 75//75
f 37//37 35//35 23//23
f 23//23 35//35 33//33
f 23//23 33//33 31//31
f 17//17 15//15 41//41
f 41//41 15//15 13//13
f 41//41 13//13 11//11
f 31//31 29//29 23//23
f 23//23 29//29 27//27
f 23//23 27//27 25//25
# 164 faces, 0 coords texture

# End of File
